<?xml version="1.0" encoding="iso-8859-1"?>
<!-- Uploaded to: SVG Repo, www.svgrepo.com, Generator: SVG Repo Mixer Tools -->
<svg fill="#000000" height="800px" width="800px" version="1.1" id="Layer_1" xmlns="http://www.w3.org/2000/svg" xmlns:xlink="http://www.w3.org/1999/xlink" 
	 viewBox="0 0 512.001 512.001" xml:space="preserve">
<g>
	<g>
		<circle cx="98.049" cy="155.226" r="8.17"/>
	</g>
</g>
<g>
	<g>
		<circle cx="65.37" cy="187.906" r="8.17"/>
	</g>
</g>
<g>
	<g>
		<path d="M405.781,65.359c-10.034,0-19.905,1.389-29.44,4.138C351.536,26.454,306.046,0,256.001,0
			c-50.045,0-95.535,26.454-120.34,69.497c-9.535-2.749-19.406-4.138-29.44-4.138c-58.563,0-106.208,47.644-106.208,106.208
			c0,58.563,47.644,106.208,106.208,106.208c25.666,0,50.002-9.077,69.272-25.702c23.572,16.839,51.26,25.702,80.508,25.702
			s56.936-8.864,80.508-25.702c10.533,9.087,22.587,15.901,35.536,20.228l-17.3,143.46c-64.72,19.459-132.769,19.459-197.489,0
			L143.07,298.135c-0.54-4.479-4.611-7.67-9.089-7.134c-4.48,0.54-7.674,4.609-7.134,9.089l23.003,190.751
			c0.392,3.252,2.688,5.955,5.833,6.868c32.813,9.528,66.563,14.292,100.315,14.292s67.502-4.764,100.316-14.292
			c3.146-0.913,5.441-3.615,5.833-6.868l25.875-214.56c5.816,0.976,11.747,1.492,17.757,1.492
			c58.563,0,106.208-47.644,106.208-106.208C511.987,113.003,464.343,65.359,405.781,65.359z M346.579,483.479
			c-59.378,16.242-121.779,16.242-181.157,0l-6.041-50.093c31.414,8.761,63.853,13.206,96.62,13.206s65.206-4.444,96.619-13.206
			L346.579,483.479z M405.781,261.434c-23.72,0-46.098-9.163-63.014-25.804c-1.581-1.556-3.652-2.345-5.732-2.345
			c-1.784,0-3.574,0.582-5.066,1.762c-21.819,17.262-48.089,26.386-75.967,26.386c-27.879,0-54.148-9.124-75.967-26.386
			c-3.234-2.559-7.863-2.307-10.798,0.583c-16.916,16.64-39.295,25.804-63.014,25.804c-49.553,0-89.868-40.315-89.868-89.868
			c0-49.553,40.314-89.868,89.868-89.868c10.507,0,20.799,1.797,30.592,5.342c3.867,1.402,8.175-0.294,10.052-3.956
			C167.96,41.916,209.778,16.34,256.001,16.34c46.223,0,88.04,25.576,109.136,66.744c1.878,3.662,6.189,5.358,10.052,3.956
			c9.793-3.545,20.085-5.342,30.592-5.342c49.553,0,89.868,40.315,89.868,89.868C495.649,221.119,455.334,261.434,405.781,261.434z"
			/>
	</g>
</g>
</svg>